<?xml version="1.0" encoding="utf-8"?>
<!-- Generator: Adobe Illustrator 22.0.1, SVG Export Plug-In . SVG Version: 6.00 Build 0)  -->
<svg version="1.1" id="Layer_1" xmlns="http://www.w3.org/2000/svg" xmlns:xlink="http://www.w3.org/1999/xlink" x="0px" y="0px" viewBox="0 0 268.1 112.3" style="enable-background:new 0 0 268.1 112.3;" xml:space="preserve">
  <g>
    <path d="M246.2,11.5c2.4-3.8,5.4-6.8,9-9.2c2-1.4,3.2-1.4,4.4,1.2c1.6,3.8,3,7.8,1.8,12c-0.4,1.6-0.2,2.8,0.8,4.2
c1.2,1.6,2.2,3.2,3.2,4.6c2.6,3.8,3.6,7.8,1.8,12.4c-0.8,2-0.8,4-0.4,6.2c0.4,2,0.4,4,0,6c-0.6,3.2-2.2,5.4-5.4,6.4
c-2.6,0.6-4.8,1.8-6.4,4c-0.4,0.6-1,1-1.8,1c-2.4,0.4-8.4-5-8.4-7.4c0-0.4,0-0.8,0-1.2c0.2-7.2-0.2-7.8-6.8-10.8
c-1.4-0.6-2.6-1.2-3.6-2.4c-1.2-1.6-2.8-1.4-4.6-0.8c-1.6,0.8-2.8,1.8-2.6,3.8c0.6,4.8,0.8,9.6,0.6,14.6c0,0.6,0.2,1.2,0.4,1.6
c6.2,9,8.6,19.6,11.6,29.8c2.4,7.8,6.8,12,14.8,12.6c1.2,0,2.6,0.4,3.8,0.6c3.6,0.6,5.8,3,6.8,6.4c1.4,4.2,0.6,5.2-3.6,5.2
c-4.4,0-8.6,0-13,0c-1.8,0-3.2-0.4-4.6-1.6c-2-2-4.4-2.8-6.8-4c-2.6-1.2-5.2-2.6-6.8-5.2c-2.2-3.4-5.2-6.2-8-9
c-5.6-5.8-11.6-11.4-16.8-17.4c-3.8-4.4-6.4-9.2-6.4-15.2c0-1.8-0.4-2.6-2.4-1.8c-0.6,0.4-1.4,0.6-2,0.6c-5.6,0-8.4,3.4-10.4,8.4
c-1.8,4.2-4.2,8.2-6.4,12.4c-1,2.2-2,5.2-2,8.4c0,4.8,1.2,6.4,5.6,8c2.8,1,5.4,2,6.8,4.8c1.6,3.2,1.2,4-2.2,4.2c-4.6,0-9,0-13.6,0
c-1.8,0-3-0.6-3.8-2.2c-1.2-2-2.4-4-3.6-6c-2-3.4-2.8-6.8-1.4-10.8c1.2-3.4,0.6-7.2,0.2-10.6c-0.8-5.2,0-9.8,3.4-14
c1.2-1.4,1.2-2-0.8-2.4c-8.2-1.6-16-4.6-23.6-8.2c0,0-0.2,0-0.2-0.2c-6.4-2.4-7.6-2-9.4,4.6c-1.6,5.6-3.2,11.2-4.4,17
c-1.4,6.4,0.2,12.4,2.2,18.4c0.8,2.4,3.2,2.2,5,2.8c4,1.2,7.4,2.8,9,7c1.4,3.2,1.2,3.6-2.2,3.6s-6.8-0.2-10.4,0
c-3.2,0.2-5.6-1-8.4-2.8c-9.6-6.4-12.4-16.2-13.2-26.8c-0.4-6.6-4-11.8-8.2-16.8c-0.8-1-1.6-1.4-2.8-0.6c-4.2,2.6-9,4.2-13.4,6
c-9.6,3.6-18,9.2-24.4,17.6c-2.4,3-3.8,6.4-4.4,10.2c-0.6,3.6,0.4,5.2,4,6.2c3.8,1.2,5.4,3,5.8,6.8c0.2,1.6-0.4,2.4-2,2.4
c-5.4,0-10.8,0-16.2,0c-1.2,0-2-0.8-2.6-1.6c-2.6-3.2-3.8-7-3.8-11c-0.2-7,0.6-13.8,1.8-20.6c0.8-4.2,2.8-7.6,6.8-9.6
c11.8-5.6,18-16.2,23.6-27.2c1.2-2.2,0.2-2.6-1.8-2.4c-5.8,0.6-10.8,3.2-15.4,6.4c-6,4.2-11.4,9.2-16.6,14.2
c-5.8,5.4-12.4,9.2-20.6,9.8C6.2,64.9-0.6,56.7,0,43.5c0.2-4.6,1.8-8.8,4.8-12.2c2.4-2.6,5.2-4,9-3c3,0.8,3.8,2.4,2.6,5.4
c-0.6,1.2-1.4,2.2-2,3.4c-0.8,1.2-1.6,2.6-2,4c-2.2,6,0.8,10.2,7,10.8c6.6,0.6,12-2.2,17-6.2c6-4.8,11.4-10.4,16-16.6
c7.4-9.6,17-14.6,28.8-16.2c4.6-0.6,8.6-2.6,13-3.8c8.2-2.4,16.6-3.8,25.4-3.6c4,0.2,7.8-0.6,11.6-2.2c9.8-4,20-4,30.2-2
c8,1.6,16,3.6,23.8,5.6c4.4,1,9.4,0.6,14-0.4c8.8-2,17.8-3.8,26.8-4c6-0.2,11.8,0.8,17.2,3.4C247.2,7.7,247.2,7.7,246.2,11.5z" />
  </g>
</svg>
