<?xml version="1.0" encoding="utf-8"?>
<!-- Generator: Adobe Illustrator 22.0.1, SVG Export Plug-In . SVG Version: 6.00 Build 0)  -->
<svg version="1.1" id="Layer_1" xmlns="http://www.w3.org/2000/svg" xmlns:xlink="http://www.w3.org/1999/xlink" x="0px" y="0px" viewBox="0 0 140.1 194" style="enable-background:new 0 0 140.1 194;" xml:space="preserve">
<g>
<path d="M109.6,0c-0.2,0-0.6,0-0.8,0c-1.4,0.8-2.2,1.8-2.8,3.2c-1.2,2.2-2,4.6-2.6,6.8c-0.4,1.6-1.4,2.4-3,2.6 c-4.6,0.8-8,3.4-10.4,7.4c-1.4,2.6-2.6,5.2-3.6,7.8c-2.8,7.4-5,15-7.6,22.4C77.4,54,77.2,54,73.4,54c-4.6,0-4.2-0.8-4.2,4.2 c0,1.6,0.4,2.4,2.2,2.4c0.6,0,1.4-0.2,1.6,0.4c0.2,0.6-0.4,1-0.8,1.4c-2.4,2.6-5.4,4-8.6,4.8c-3.8,1-7.6,1.8-11.4,3 C42.8,73.4,34,77.8,27,85.4c-4.2,4.6-7,10-9.4,15.6c-7.6,17.4-11.2,35.6-14,54c-1.2,8.6-2.2,17.2-3,26c-0.2,4.4-0.6,8.6-0.6,13 c22.2,0,44.4,0,66.6,0c0.2-1-0.2-1.8-0.4-2.6c-1.4-3.6-4.2-5.4-7.6-6.2c-1.4-0.4-1.6-0.8-0.8-1.8c1.4-1.8,2.4-4,3.2-6.2
c3.2-9.6,4.6-19.6,6.2-29.6c1.2-7.6,3-14.8,6.8-21.6c3-5,6.6-9.2,11.2-12.8c1.6-1.2,1.8-1.2,2,0.8c0.2,1.4,0.2,2.8,0.4,4.4
c0.6,9.4,0.6,19-0.4,28.4c-0.6,7.4-1,14.8-0.4,22c0.8,8.6,2.4,16.8,4.4,25.2c8.8,0,17.8,0,26.6,0c-0.6-4.4-4.2-8-8.4-8.8
c-2.6-0.4-5-0.2-7.6,0.4c-1.2,0.2-1.6,0-1.8-1.2c-0.8-10.6-0.2-21.2,2-31.6c2.6-12,4.8-24.2,6.2-36.4c0.6-5,2-9.6,4.6-14
  c2.4-4.2,4.4-8.6,6.8-13c1.8-3.4,2.2-6.8,0.8-10.4c-0.6-1.4-1-2.8-1.8-4.2c-2-4-4-7.8-5.8-11.8c-1-2-0.8-2.2,1.4-2.2
  c3.2,0,3.2,0,3.4-3.2c0-0.4,0-0.8,0-1.4c0-1.4-0.6-2.2-2-2c-1,0-2,0-3,0c-1.4,0-1.8-0.6-1.4-2c1.2-4.6,5.6-8.2,10.2-8.8
c4.4-0.6,8.8,0,13.2,0.8c1.2,0.2,2,0,2.6-1.2c0.8-2,1.6-4,2.6-6c0.4-0.8,0.4-1.6-0.2-2.2c-6.4-8.4-13.4-16-22.8-20.8
c-1-0.6-1.6-1.2-1.8-2.2c-0.6-2.8-1.4-5.6-2.6-8.4C111.8,2,111.2,0.8,109.6,0z"/>
</g>
</svg>
