<svg xmlns="http://www.w3.org/2000/svg" viewBox="0 0 140.1 194"><path d="M109.6 0h-.8c-1.4.8-2.2 1.8-2.8 3.2-1.2 2.2-2 4.6-2.6 6.8-.4 1.6-1.4 2.4-3 2.6-4.6.8-8 3.4-10.4 7.4-1.4 2.6-2.6 5.2-3.6 7.8-2.8 7.4-5 15-7.6 22.4-1.4 3.8-1.6 3.8-5.4 3.8-4.6 0-4.2-.8-4.2 4.2 0 1.6.4 2.4 2.2 2.4.6 0 1.4-.2 1.6.4.2.6-.4 1-.8 1.4-2.4 2.6-5.4 4-8.6 4.8-3.8 1-7.6 1.8-11.4 3C42.8 73.4 34 77.8 27 85.4c-4.2 4.6-7 10-9.4 15.6-7.6 17.4-11.2 35.6-14 54-1.2 8.6-2.2 17.2-3 26-.2 4.4-.6 8.6-.6 13h66.6c.2-1-.2-1.8-.4-2.6-1.4-3.6-4.2-5.4-7.6-6.2-1.4-.4-1.6-.8-.8-1.8 1.4-1.8 2.4-4 3.2-6.2 3.2-9.6 4.6-19.6 6.2-29.6 1.2-7.6 3-14.8 6.8-21.6 3-5 6.6-9.2 11.2-12.8 1.6-1.2 1.8-1.2 2 .8.2 1.4.2 2.8.4 4.4.6 9.4.6 19-.4 28.4-.6 7.4-1 14.8-.4 22 .8 8.6 2.4 16.8 4.4 25.2h26.6c-.6-4.4-4.2-8-8.4-8.8-2.6-.4-5-.2-7.6.4-1.2.2-1.6 0-1.8-1.2-.8-10.6-.2-21.2 2-31.6 2.6-12 4.8-24.2 6.2-36.4.6-5 2-9.6 4.6-14 2.4-4.2 4.4-8.6 6.8-13 1.8-3.4 2.2-6.8.8-10.4-.6-1.4-1-2.8-1.8-4.2-2-4-4-7.8-5.8-11.8-1-2-.8-2.2 1.4-2.2 3.2 0 3.2 0 3.4-3.2v-1.4c0-1.4-.6-2.2-2-2h-3c-1.4 0-1.8-.6-1.4-2 1.2-4.6 5.6-8.2 10.2-8.8 4.4-.6 8.8 0 13.2.8 1.2.2 2 0 2.6-1.2.8-2 1.6-4 2.6-6 .4-.8.4-1.6-.2-2.2-6.4-8.4-13.4-16-22.8-20.8-1-.6-1.6-1.2-1.8-2.2-.6-2.8-1.4-5.6-2.6-8.4-.6-1.4-1.2-2.6-2.8-3.4z"/></svg>