<svg xmlns="http://www.w3.org/2000/svg" viewBox="0 0 268.1 112.3"><path d="M246.2 11.5c2.4-3.8 5.4-6.8 9-9.2 2-1.4 3.2-1.4 4.4 1.2 1.6 3.8 3 7.8 1.8 12-.4 1.6-.2 2.8.8 4.2 1.2 1.6 2.2 3.2 3.2 4.6 2.6 3.8 3.6 7.8 1.8 12.4-.8 2-.8 4-.4 6.2.4 2 .4 4 0 6-.6 3.2-2.2 5.4-5.4 6.4-2.6.6-4.8 1.8-6.4 4-.4.6-1 1-1.8 1-2.4.4-8.4-5-8.4-7.4v-1.2c.2-7.2-.2-7.8-6.8-10.8-1.4-.6-2.6-1.2-3.6-2.4-1.2-1.6-2.8-1.4-4.6-.8-1.6.8-2.8 1.8-2.6 3.8.6 4.8.8 9.6.6 14.6 0 .6.2 1.2.4 1.6 6.2 9 8.6 19.6 11.6 29.8 2.4 7.8 6.8 12 14.8 12.6 1.2 0 2.6.4 3.8.6 3.6.6 5.8 3 6.8 6.4 1.4 4.2.6 5.2-3.6 5.2h-13c-1.8 0-3.2-.4-4.6-1.6-2-2-4.4-2.8-6.8-4-2.6-1.2-5.2-2.6-6.8-5.2-2.2-3.4-5.2-6.2-8-9-5.6-5.8-11.6-11.4-16.8-17.4-3.8-4.4-6.4-9.2-6.4-15.2 0-1.8-.4-2.6-2.4-1.8-.6.4-1.4.6-2 .6-5.6 0-8.4 3.4-10.4 8.4-1.8 4.2-4.2 8.2-6.4 12.4-1 2.2-2 5.2-2 8.4 0 4.8 1.2 6.4 5.6 8 2.8 1 5.4 2 6.8 4.8 1.6 3.2 1.2 4-2.2 4.2h-13.6c-1.8 0-3-.6-3.8-2.2l-3.6-6c-2-3.4-2.8-6.8-1.4-10.8 1.2-3.4.6-7.2.2-10.6-.8-5.2 0-9.8 3.4-14 1.2-1.4 1.2-2-.8-2.4-8.2-1.6-16-4.6-23.6-8.2 0 0-.2 0-.2-.2-6.4-2.4-7.6-2-9.4 4.6-1.6 5.6-3.2 11.2-4.4 17-1.4 6.4.2 12.4 2.2 18.4.8 2.4 3.2 2.2 5 2.8 4 1.2 7.4 2.8 9 7 1.4 3.2 1.2 3.6-2.2 3.6s-6.8-.2-10.4 0c-3.2.2-5.6-1-8.4-2.8-9.6-6.4-12.4-16.2-13.2-26.8-.4-6.6-4-11.8-8.2-16.8-.8-1-1.6-1.4-2.8-.6-4.2 2.6-9 4.2-13.4 6-9.6 3.6-18 9.2-24.4 17.6-2.4 3-3.8 6.4-4.4 10.2-.6 3.6.4 5.2 4 6.2 3.8 1.2 5.4 3 5.8 6.8.2 1.6-.4 2.4-2 2.4H49.4c-1.2 0-2-.8-2.6-1.6-2.6-3.2-3.8-7-3.8-11-.2-7 .6-13.8 1.8-20.6.8-4.2 2.8-7.6 6.8-9.6 11.8-5.6 18-16.2 23.6-27.2 1.2-2.2.2-2.6-1.8-2.4-5.8.6-10.8 3.2-15.4 6.4-6 4.2-11.4 9.2-16.6 14.2-5.8 5.4-12.4 9.2-20.6 9.8C6.2 64.9-.6 56.7 0 43.5c.2-4.6 1.8-8.8 4.8-12.2 2.4-2.6 5.2-4 9-3 3 .8 3.8 2.4 2.6 5.4-.6 1.2-1.4 2.2-2 3.4-.8 1.2-1.6 2.6-2 4-2.2 6 .8 10.2 7 10.8 6.6.6 12-2.2 17-6.2 6-4.8 11.4-10.4 16-16.6 7.4-9.6 17-14.6 28.8-16.2 4.6-.6 8.6-2.6 13-3.8 8.2-2.4 16.6-3.8 25.4-3.6 4 .2 7.8-.6 11.6-2.2 9.8-4 20-4 30.2-2 8 1.6 16 3.6 23.8 5.6 4.4 1 9.4.6 14-.4 8.8-2 17.8-3.8 26.8-4 6-.2 11.8.8 17.2 3.4 4 1.8 4 1.8 3 5.6z"/></svg>